<svg viewBox="0 0 180 69" fill="none" xmlns="http://www.w3.org/2000/svg"><path fill-rule="evenodd" clip-rule="evenodd" d="M10.418 4.255C9.876 1.665 8.508 0 5.6 0 1.584 0 0 3.16 0 7.794c0 4.613 1.584 7.794 5.6 7.794 3.06 0 4.515-1.854 5.014-4.677H8.27c-.413 1.938-1.324 2.507-2.779 2.507-2.322 0-3.125-2.106-3.125-5.624S3.169 2.17 5.49 2.17c1.455 0 2.17.61 2.605 2.085h2.322zm20.468 8.952V8.573h4.689V6.467h-4.689V2.38h6.382V.274h-8.704v15.04h8.704v-2.107h-6.382zM63.162.274l-1.368 6.972h-.607L59.819.274h-4.384v15.04h2.235V2.59h.608l1.411 7.035h3.516l1.411-7.035h.608v12.723h2.235V.274h-4.297zM91.03 6.13h-2.28V.274H86.43v15.04h4.602c3.364 0 5.274-1.79 5.274-4.613 0-2.844-1.91-4.571-5.274-4.571zm-.326 7.077h-1.953v-4.97h1.953c2.366 0 3.234.926 3.234 2.485 0 1.558-.868 2.485-3.234 2.485zm33.73 0V.274H116.1v2.654c0 5.013-.803 8.236-1.649 10.28h-1.433V19h2.323v-3.686h8.682V19h2.322v-5.793h-1.91zm-2.322 0h-5.21c.738-1.98 1.455-5.308 1.455-9.963V2.38h3.755v10.827zm29.757 2.107h2.323L151.089.274h-4.515l-3.082 15.04h2.279l.847-4.466h4.384l.868 4.466zM148.224 2.59h1.194l1.172 6.15h-3.56l1.194-6.15zM180 .274h-9.746V2.38h3.712v12.934h2.322V2.38H180V.274z" fill="#fff"/><path d="M19 22.859V24h3V0h-3v22.859zM45 22.859V24h3V0h-3v22.859zM77 22.859V24h2V0h-2v22.859zM104 22.859V24h3V0h-3v22.859zM136 22.859V24h3V0h-3v22.859zM162 22.859V24h3V0h-3v22.859z" fill="#fff"/><path fill-rule="evenodd" clip-rule="evenodd" d="M11 46.25c0 .128-.014.594-.07.75H6.898a2.879 2.879 0 0 1-.057-.679l.592-.17c.606-.17.762-.905.762-1.315l.028-1.697v-3.254l-5.498 5.206c0 .325 0 .735.366.834l1.353.368c0 .127-.014.551-.07.707H.06a2.434 2.434 0 0 1-.056-.622l.817-.297c.395-.156.607-.722.607-1.132l.028-1.81v-4.357c0-.396-.099-.806-.423-.905l-1.03-.297c0-.127.015-.424.057-.58h3.835c.042.212.07.453.056.636l-.79.184c-.38.1-.436.227-.436.58v5.446l5.498-5.205c0-.1-.028-.198-.057-.297a.815.815 0 0 0-.521-.51l-.691-.254c0-.127-.028-.424.014-.58h3.694c0 .226.014.453-.029.636l-.733.17c-.296.085-.408.17-.408.552v4.78l.056 2.278c0 .34.085.523.268.566L11 46.25zm7-6.331c0 .551-.256.918-.67 1.173-.342-.41-1.04-1.103-1.81-1.103-1.525 0-2.223.806-2.223 2.983 0 1.752.484 2.982 2.636 2.982.613 0 1.468-.155 1.796-.268l.242.734c-.256.17-1.111.58-2.365.58C12.812 47 12 45.841 12 42.93c0-2.036 1.41-3.93 3.691-3.93.641 0 2.309.042 2.309.919zM19 39h7v2.227c-.142.03-.525.044-.625-.015-.142-.615-.326-1.186-1.178-1.245h-1.08v3.048l.043 2.681c0 .25.085.293.242.322l1.235.235c0 .132-.014.586-.071.747h-4.032a5.268 5.268 0 0 1-.043-.645l.894-.322c.228-.088.44-.528.455-.791l.042-2.227v-3.048h-1.079c-.852.059-1.036.63-1.178 1.245-.1.06-.483.044-.625.015V39zm15 4.021C34 45.103 32.424 47 30.408 47 28.278 47 27 45.853 27 43.106 27 40.996 28.605 39 30.535 39c2.3 0 3.465 1.288 3.465 4.021zm-1-.035c0-1.43-.28-2.986-2.1-2.986-1.632 0-1.9 1.698-1.9 3.17 0 1.613.401 2.83 2.14 2.83 1.62 0 1.86-1.486 1.86-3.014zm10-.22c0 3.24-1.907 4.221-3.857 4.221-.688 0-.974-.028-1.362-.085l.086 1.847c0 .157 0 .256.273.313l1.147.213c.014.156.014.54-.058.725h-3.828a2.406 2.406 0 0 1-.043-.668l.517-.213c.3-.128.53-.47.53-.896l.043-5.258v-2.913H35v-.697c.502-.1 1.505-.312 2.136-.312.402 0 .56.128.56.511v.313c.473-.398 1.118-.867 2.02-.867C41.954 39 43 40.364 43 42.766zm-1 .269C42 41.65 41.456 40 39.824 40c-.853 0-1.56.448-1.824.643v2.336l.044 2.91c.368.055.427.111 1.47.111C41.28 46 42 44.755 42 43.035zM50.281 39h3.39c.056.161.056.615.056.747l-.916.205c-.233.059-.274.367-.274.601v2.462l.041 2.681c0 .25.082.293.232.322l1.19.235c0 .132-.014.586-.068.747h-3.883a5.477 5.477 0 0 1-.041-.645l.861-.322c.219-.088.424-.528.438-.791l.027-2.022v-1.597L47.342 45.3l.013.367c.014.234.014.322.192.351l1.066.235c0 .132 0 .586-.055.747h-3.513a3.564 3.564 0 0 1-.041-.645l.629-.322c.3-.147.464-.586.464-.85L46.138 43v-2.359c0-.264-.095-.557-.396-.689l-.711-.307c-.014-.19.014-.425.041-.645h3.39c.055.161.055.615.055.747l-.916.205c-.232.059-.273.367-.273.601v2.535l.014 1.143 4.006-3.678a1.076 1.076 0 0 0-.055-.293c-.055-.132-.164-.234-.342-.308l-.71-.307c-.015-.19.013-.425.04-.645zm4.85 8L55 46.34c.463-.17.825-.366 1.013-.507.578-.464 1.171-1.308 1.837-2.376-.68-.183-1.736-.83-1.736-2.08 0-1.491 1.23-2.377 2.922-2.377h3.79c.058.155.058.59.058.717l-.969.197c-.246.056-.29.351-.29.576v2.939l.059 1.968c0 .225 0 .31.188.338L63 45.96c0 .126 0 .562-.058.717h-3.718a3.113 3.113 0 0 1-.043-.619l.665-.31c.319-.14.492-.562.492-.815l.03-1.321h-1.245c-.651 1.152-1.635 2.882-2.315 3.093-.26.084-1.128.28-1.678.295zm3.925-4H60v-3h-1.188C57.67 40 57 40.568 57 41.515c0 .96.548 1.485 2.056 1.485zM75 40.041c0 1.782-1.247 3.14-4.013 3.14h-.272v-.877l.358-.014c1.577-.057 2.508-.58 2.508-2.178 0-1.316-.616-2.136-2.22-2.164l-1.62-.029v5.22l.028 2.178c0 .34.072.551.33.608l1.462.382c0 .127-.015.537-.072.693h-4.428a2.397 2.397 0 0 1-.057-.622l.83-.255c.33-.099.545-.354.56-.877l.043-2.107v-4.654c0-.226-.1-.48-.344-.566l-1.075-.367c-.014-.114 0-.368.072-.552h4.643c2.006 0 3.267.948 3.267 3.041zm8 2.98C83 45.103 81.424 47 79.408 47 77.278 47 76 45.853 76 43.106 76 40.996 77.605 39 79.535 39c2.3 0 3.465 1.288 3.465 4.021zm-1-.035c0-1.43-.28-2.986-2.1-2.986-1.632 0-1.9 1.698-1.9 3.17 0 1.613.401 2.83 2.14 2.83 1.62 0 1.86-1.486 1.86-3.014zm9-3.067c0 .551-.257.918-.67 1.173-.342-.41-1.04-1.103-1.81-1.103-1.525 0-2.223.806-2.223 2.983 0 1.752.484 2.982 2.636 2.982.613 0 1.468-.155 1.796-.268l.243.734c-.257.17-1.112.58-2.366.58C85.812 47 85 45.841 85 42.93c0-2.036 1.41-3.93 3.691-3.93.641 0 2.309.042 2.309.919zm7 0c0 .551-.257.918-.67 1.173-.342-.41-1.04-1.103-1.81-1.103-1.525 0-2.223.806-2.223 2.983 0 1.752.484 2.982 2.636 2.982.613 0 1.468-.155 1.796-.268l.243.734c-.257.17-1.112.58-2.366.58C92.812 47 92 45.841 92 42.93c0-2.036 1.41-3.93 3.691-3.93.641 0 2.309.042 2.309.919zm6.281-.919h3.391c.055.161.055.615.055.747l-.916.205c-.233.059-.274.367-.274.601v2.462l.041 2.681c0 .25.082.293.233.322l1.189.235c0 .132-.014.586-.068.747h-3.883a5.33 5.33 0 0 1-.041-.645l.861-.322c.219-.088.424-.528.438-.791l.027-2.022v-1.597l-3.992 3.677.013.367c.014.234.014.322.192.351l1.066.235c0 .132 0 .586-.055.747h-3.513a3.564 3.564 0 0 1-.041-.645l.629-.322c.3-.147.464-.586.464-.85l.041-2.183v-2.359c0-.264-.095-.557-.396-.689l-.711-.307c-.014-.19.014-.425.041-.645h3.391c.054.161.054.615.054.747l-.916.205c-.232.059-.273.367-.273.601v2.535l.014 1.143 4.006-3.678a1.098 1.098 0 0 0-.055-.293c-.055-.132-.164-.234-.342-.308l-.711-.307c-.014-.19.014-.425.041-.645zm11 0h3.391c.055.161.055.615.055.747l-.916.205c-.233.059-.274.367-.274.601v2.462l.041 2.681c0 .25.082.293.233.322l1.189.235c0 .132-.014.586-.068.747h-3.883a5.33 5.33 0 0 1-.041-.645l.861-.322c.219-.088.424-.528.438-.791l.027-2.022v-1.597l-3.992 3.677.013.367c.014.234.014.322.192.351l1.066.235c0 .132 0 .586-.055.747h-3.513a3.475 3.475 0 0 1-.041-.645l.629-.322c.3-.147.464-.586.464-.85l.041-2.183v-2.359c0-.264-.095-.557-.396-.689l-.711-.307c-.014-.19.014-.425.041-.645h3.391c.054.161.054.615.054.747l-.916.205c-.232.059-.273.367-.273.601v2.535l.014 1.143 4.006-3.678a1.098 1.098 0 0 0-.055-.293c-.055-.132-.164-.234-.342-.308l-.711-.307c-.014-.19.014-.425.041-.645zM7.503 59.553v2.462l.042 2.681c0 .25.084.293.238.322L9 65.253c0 .132-.014.586-.07.747H4.957a5.346 5.346 0 0 1-.042-.645l.881-.322c.224-.088.434-.527.448-.791L6.272 62v-3.033h-3.89v3.062l.042 2.638c0 .234 0 .322.182.351l1.091.235c0 .132 0 .586-.056.747H.046a3.483 3.483 0 0 1-.042-.645l.643-.322c.308-.147.476-.586.476-.85L1.165 62v-2.359c0-.264-.098-.557-.406-.689l-.727-.307c-.014-.19.014-.425.042-.645h8.59c.056.161.056.615.056.747l-.937.205c-.238.059-.28.367-.28.601zM18 62.021C18 64.103 16.424 66 14.408 66 12.278 66 11 64.853 11 62.106 11 59.996 12.604 58 14.536 58c2.3 0 3.464 1.288 3.464 4.021zm-2-.035c0-1.43-.28-2.986-2.1-2.986-1.632 0-1.9 1.698-1.9 3.17 0 1.613.401 2.83 2.14 2.83 1.62 0 1.86-1.486 1.86-3.014zM23 62l-4-.012v-.795L23 61v1zm1 5.986v-3.139h.895c.407-.67.691-1.27.881-1.826.244-.727.61-3.08.61-3.537 0-.357-.067-.457-.447-.571l-.624-.185c0-.1.027-.614.054-.728h6.373c.041.2.055.5.055.728l-.841.185c-.258.057-.34.257-.34.542v3.253l.069 2.14H32v3.11c-.108.028-.61.028-.705-.015-.122-.514-.434-2.154-1.126-2.154h-4.067c-1.356 0-1.288 1.669-1.41 2.183-.095.042-.57.028-.692.014zM26 65h3.953L30 62.826V59h-2.447c-.141 1.536-.502 3.58-.8 4.377-.22.594-.455 1.101-.753 1.623zm15-3.234c0 3.24-1.907 4.221-3.857 4.221-.688 0-.974-.028-1.362-.085l.086 1.847c0 .157 0 .256.273.313l1.147.213c.014.156.014.54-.058.725h-3.828a2.407 2.407 0 0 1-.043-.668l.517-.213c.3-.128.53-.47.53-.896l.043-5.258v-2.913H33v-.697c.502-.1 1.505-.312 2.136-.312.402 0 .56.128.56.511v.313c.473-.398 1.118-.867 2.02-.867C39.954 58 41 59.364 41 61.766zm-1 .269C40 60.65 39.456 59 37.824 59c-.853 0-1.56.448-1.824.643v2.336l.044 2.91c.368.055.427.111 1.47.111C39.28 65 40 63.755 40 62.035zM50 58c0 .24 0 .492-.058.661-.32.113-.598.155-.947 1.013l-2.914 7.132c-.394.928-.918 1.688-1.734 2.194l-.801-.999c.451-.281 1.253-.97 1.515-1.547l.379-.816-2.492-6.19c-.116-.266-.437-.646-.947-.815 0-.197-.014-.45.059-.633h3.22c0 .281-.015.563-.059.732H44.1l2.127 5.443 1.749-4.417c.16-.408.044-.872-.408-1.026l-.306-.113s-.015-.45.014-.619H50zm7 2.227c-.139.03-.513.044-.61-.014-.138-.616-.318-1.143-1.15-1.202l-1.87-.103v3.077l.07 2.652c0 .235.027.352.207.381l1.441.235c0 .132 0 .586-.055.747h-3.977c-.027-.22-.083-.425-.041-.645l.637-.322c.305-.147.471-.586.471-.85L52.165 62v-2.359c0-.264-.097-.557-.402-.689l-.72-.307c-.014-.19.014-.425.041-.645H57v2.227zm8 1.794C65 64.103 63.424 66 61.408 66 59.278 66 58 64.853 58 62.106 58 59.996 59.605 58 61.535 58c2.3 0 3.465 1.288 3.465 4.021zm-2-.035c0-1.43-.28-2.986-2.1-2.986-1.632 0-1.9 1.698-1.9 3.17 0 1.613.401 2.83 2.14 2.83 1.62 0 1.86-1.486 1.86-3.014zm12.348-2.164l.462 4.484c.028.256.21.484.406.57l.784.241c0 .1-.028.527-.056.655h-3.332a4.87 4.87 0 0 1-.042-.626l.462-.142c.476-.143.588-.798.532-1.225l-.308-3.672-.028-.598h-.056l-2.296 6.249L70.84 66l-2.226-6.534h-.07v.555l-.532 4.342c-.028.2 0 .327.112.37l1.162.328c0 .1-.028.583-.07.711h-3.207c-.028-.17.014-.57.028-.726l.546-.199c.308-.157.49-.527.56-.868l.546-4.385c.057-.27-.097-.555-.307-.626l-.785-.242c0-.1.043-.612.07-.726h2.717l1.47 4.484.616 1.694h.098l.588-1.751L73.822 58h2.492c.042.142.084.626.084.754l-.644.2c-.266.085-.462.384-.406.868zM86 58c0 .24 0 .492-.058.661-.32.113-.598.155-.947 1.013l-2.914 7.132c-.394.928-.918 1.688-1.734 2.194l-.801-.999c.451-.281 1.253-.97 1.515-1.547l.379-.816-2.492-6.19c-.116-.266-.437-.646-.947-.815 0-.197-.014-.45.058-.633h3.22c0 .281-.014.563-.058.731H80.1l2.127 5.444 1.749-4.417c.16-.408.044-.872-.408-1.027l-.306-.112s-.015-.45.014-.619H86z" fill="#fff"/></svg>