<svg viewBox="0 0 150 60" xmlns="http://www.w3.org/2000/svg">
  <g fill="#FFF" fill-rule="evenodd">
    <path d="M8.682 3.583C8.23 1.401 7.09 0 4.667 0 1.32 0 0 2.66 0 6.563c0 3.885 1.32 6.563 4.667 6.563 2.55 0 3.762-1.56 4.178-3.938H6.89C6.548 10.82 5.788 11.3 4.576 11.3c-1.935 0-2.604-1.774-2.604-4.736 0-2.962.669-4.736 2.604-4.736 1.212 0 1.809.514 2.17 1.756h1.936zm17.057 7.539V7.22h3.906V5.446H25.74V2.004h5.317V.231h-7.253v12.665h7.253v-1.774H25.74zM52.635.231l-1.14 5.871h-.506L49.849.231h-3.653v12.665h1.863V2.182h.506l1.176 5.924h2.93l1.176-5.924h.506v10.714h1.863V.23h-3.581zm23.224 4.93H73.96V.232h-1.935v12.665h3.834c2.804 0 4.395-1.508 4.395-3.885 0-2.395-1.591-3.85-4.395-3.85zm-.271 5.961H73.96V6.936h1.628c1.971 0 2.695.78 2.695 2.093 0 1.312-.724 2.093-2.695 2.093zm28.108 0V.231H96.75v2.235c0 4.221-.669 6.935-1.374 8.656h-1.194V16h1.935v-3.104h7.235V16h1.936v-4.878h-1.592zm-1.935 0H97.42c.614-1.667 1.211-4.47 1.211-8.39v-.728h3.13v9.118zm24.798 1.774h1.935L125.907.23h-3.762l-2.568 12.665h1.899l.705-3.76h3.654l.724 3.76zm-3.04-10.714h.996l.976 5.18h-2.966l.995-5.18zM150 .23h-8.121v1.773h3.093v10.892h1.935V2.004H150V.231z"/>
    <path fill-rule="nonzero" d="M15 19.049V20h2V0h-2v.951zM37 19.049V20h2V0h-2v.951zM64 19.049V20h2V0h-2v.951zM86 19.049V20h2V0h-2v.951zM113 19.049V20h2V0h-2v.951zM134 19.049V20h2V0h-2v.951z"/>
    <path d="M10.285 40.618c0 .105-.012.489-.06.617H6.823a2.315 2.315 0 0 1-.047-.559l.5-.14c.511-.14.642-.745.642-1.083l.024-1.398v-2.679L3.3 39.663c0 .268 0 .605.31.687l1.142.303c0 .105-.012.454-.06.582H1.051a1.957 1.957 0 0 1-.048-.512l.69-.245c.334-.128.512-.594.512-.932l.024-1.49v-3.588c0-.326-.083-.664-.357-.746l-.869-.244c0-.105.012-.35.048-.478h3.237c.035.175.059.373.047.524l-.666.152c-.322.081-.37.186-.37.477v4.485l4.642-4.287a.89.89 0 0 0-.048-.244.68.68 0 0 0-.44-.42l-.583-.21c0-.104-.024-.349.012-.477H10c0 .186.011.373-.024.524l-.619.14c-.25.07-.345.14-.345.454v3.937l.047 1.876c0 .28.072.43.227.465l1 .222zm5.95-5.114c0 .455-.214.757-.56.967-.285-.338-.868-.908-1.51-.908-1.274 0-1.857.663-1.857 2.457 0 1.445.405 2.458 2.202 2.458.511 0 1.225-.128 1.5-.221l.201.605c-.214.14-.928.478-1.975.478-2.332 0-3.01-.955-3.01-3.355 0-1.677 1.177-3.238 3.081-3.238.536 0 1.928.035 1.928.757zm.738-.629h5.867v1.77c-.12.024-.44.036-.524-.01-.119-.49-.274-.944-.988-.99h-.904v2.422l.036 2.131c0 .198.071.233.202.257l1.035.186c0 .105-.012.466-.06.594h-3.379a3.976 3.976 0 0 1-.035-.512l.75-.257c.19-.07.368-.419.38-.629l.036-1.77v-2.423h-.905c-.714.047-.868.501-.987.99-.084.047-.405.035-.524.012v-1.77zm12.614 3.18c0 1.712-1.32 3.273-3.01 3.273-1.786 0-2.857-.943-2.857-3.203 0-1.735 1.345-3.378 2.964-3.378 1.927 0 2.903 1.06 2.903 3.308zm-1.166-.07c0-1.176-.25-2.457-1.868-2.457-1.452 0-1.69 1.397-1.69 2.609 0 1.328.357 2.33 1.904 2.33 1.44 0 1.654-1.224 1.654-2.482zm8.627-.116c0 2.656-1.582 3.46-3.2 3.46-.572 0-.81-.024-1.131-.07l.071 1.514c0 .128 0 .21.226.256l.952.175c.012.128.012.442-.047.594H30.74a1.945 1.945 0 0 1-.035-.548l.428-.175c.25-.104.44-.384.44-.733l.036-4.31v-2.388h-1.202v-.57c.417-.082 1.25-.257 1.773-.257.334 0 .464.105.464.42v.256c.393-.326.929-.71 1.678-.71 1.857 0 2.725 1.117 2.725 3.086zm-1.154.233c0-1.153-.44-2.528-1.761-2.528-.69 0-1.261.373-1.476.536v1.945l.036 2.423c.298.047.345.093 1.19.093 1.428 0 2.011-1.036 2.011-2.47zm6.819-3.227h2.951c.048.128.048.49.048.594l-.798.163c-.202.047-.238.292-.238.478v1.957l.036 2.131c0 .198.072.233.202.257l1.036.186c0 .105-.012.466-.06.594h-3.38a3.976 3.976 0 0 1-.035-.512l.75-.257c.19-.07.369-.419.38-.629l.024-1.607v-1.27l-3.475 2.924.012.291c.012.187.012.256.167.28l.928.186c0 .105 0 .466-.047.594h-3.059a2.59 2.59 0 0 1-.036-.512l.548-.257c.262-.116.405-.466.405-.675l.035-1.736V36.18c0-.21-.083-.443-.345-.548l-.619-.244a2.59 2.59 0 0 1 .036-.513h2.951c.048.128.048.49.048.594l-.797.163c-.203.047-.238.292-.238.478v2.015l.011.909 3.487-2.924a.789.789 0 0 0-.047-.233c-.048-.105-.143-.186-.298-.245l-.619-.244a2.59 2.59 0 0 1 .036-.513zm3.975 6.628l-.108-.547c.381-.14.679-.303.833-.42.476-.384.964-1.083 1.512-1.968-.56-.152-1.428-.687-1.428-1.724 0-1.235 1.011-1.969 2.404-1.969h3.117c.048.128.048.49.048.594l-.797.163c-.203.047-.238.292-.238.478v2.434l.047 1.631c0 .187 0 .256.155.28l.928.186c0 .105 0 .466-.047.594h-3.059a2.59 2.59 0 0 1-.035-.512l.547-.257c.262-.116.405-.466.405-.675l.023-1.095h-1.023c-.536.955-1.345 2.388-1.904 2.562-.214.07-.928.233-1.38.245zm3.57-3.46h.737v-2.399h-.928c-.892 0-1.416.454-1.416 1.211 0 .77.428 1.189 1.607 1.189zm13.459-2.539c0 1.468-1.036 2.586-3.332 2.586h-.227v-.722l.298-.012c1.309-.046 2.082-.477 2.082-1.793 0-1.084-.511-1.76-1.844-1.783l-1.345-.023v4.298l.024 1.794c0 .28.06.454.274.5l1.214.315c0 .105-.012.443-.06.571h-3.677a1.957 1.957 0 0 1-.048-.512l.69-.21c.274-.082.453-.291.465-.722l.035-1.736v-3.832c0-.186-.083-.396-.285-.466l-.893-.303c-.012-.093 0-.303.06-.454h3.855c1.666 0 2.714.78 2.714 2.504zm6.676 2.551c0 1.712-1.321 3.273-3.011 3.273-1.785 0-2.856-.943-2.856-3.203 0-1.735 1.345-3.378 2.963-3.378 1.928 0 2.904 1.06 2.904 3.308zm-1.167-.07c0-1.176-.25-2.457-1.868-2.457-1.452 0-1.69 1.397-1.69 2.609 0 1.328.357 2.33 1.904 2.33 1.44 0 1.654-1.224 1.654-2.482zm7.224-2.48c0 .454-.214.756-.56.966-.285-.338-.868-.908-1.51-.908-1.274 0-1.857.663-1.857 2.457 0 1.445.404 2.458 2.201 2.458.512 0 1.226-.128 1.5-.221l.202.605c-.214.14-.928.478-1.976.478-2.332 0-3.01-.955-3.01-3.355 0-1.677 1.178-3.238 3.082-3.238.535 0 1.928.035 1.928.757zm5.914 0c0 .454-.214.756-.56.966-.285-.338-.868-.908-1.51-.908-1.274 0-1.857.663-1.857 2.457 0 1.445.405 2.458 2.202 2.458.511 0 1.225-.128 1.499-.221l.202.605c-.214.14-.928.478-1.975.478-2.333 0-3.01-.955-3.01-3.355 0-1.677 1.177-3.238 3.081-3.238.536 0 1.928.035 1.928.757zm5.51-.63h2.951c.048.128.048.49.048.594l-.798.163c-.202.047-.238.292-.238.478v1.957l.036 2.131c0 .198.071.233.202.257l1.036.186c0 .105-.012.466-.06.594h-3.38a3.976 3.976 0 0 1-.035-.512l.75-.257c.19-.07.368-.419.38-.629l.024-1.607v-1.27l-3.475 2.924.012.291c.012.187.012.256.167.28l.928.186c0 .105 0 .466-.048.594h-3.058a2.59 2.59 0 0 1-.036-.512l.548-.257c.262-.116.404-.466.404-.675l.036-1.736V36.18c0-.21-.083-.443-.345-.548l-.619-.244a2.59 2.59 0 0 1 .036-.513h2.951c.048.128.048.49.048.594l-.798.163c-.202.047-.238.292-.238.478v2.015l.012.909 3.487-2.924a.789.789 0 0 0-.048-.233c-.047-.105-.142-.186-.297-.245l-.619-.244a2.59 2.59 0 0 1 .036-.513zm8.89 0h2.95c.048.128.048.49.048.594l-.797.163c-.203.047-.238.292-.238.478v1.957l.035 2.131c0 .198.072.233.203.257l1.035.186c0 .105-.012.466-.06.594h-3.38a3.976 3.976 0 0 1-.035-.512l.75-.257c.19-.07.369-.419.38-.629l.024-1.607v-1.27l-3.474 2.924.012.291c.011.187.011.256.166.28l.928.186c0 .105 0 .466-.047.594h-3.059a2.59 2.59 0 0 1-.035-.512l.547-.257c.262-.116.405-.466.405-.675l.035-1.736V36.18c0-.21-.083-.443-.345-.548l-.618-.244a2.59 2.59 0 0 1 .035-.513h2.951c.048.128.048.49.048.594l-.797.163c-.203.047-.238.292-.238.478v2.015l.012.909 3.486-2.924a.789.789 0 0 0-.047-.233c-.048-.105-.143-.186-.298-.245l-.619-.244a2.59 2.59 0 0 1 .036-.513zM7.5 52.126v1.957l.035 2.131c0 .198.072.233.203.257l1.035.186c0 .105-.012.466-.06.594h-3.38a3.976 3.976 0 0 1-.035-.512l.75-.257c.19-.07.369-.419.38-.629l.024-1.782v-2.41H3.145v2.433l.036 2.097c0 .186 0 .256.155.28l.928.186c0 .105 0 .466-.048.594H1.158a2.59 2.59 0 0 1-.036-.512l.548-.257c.261-.116.404-.466.404-.675l.036-1.736v-1.875c0-.21-.083-.443-.345-.548l-.62-.244a2.59 2.59 0 0 1 .037-.513h7.306c.048.128.048.49.048.594l-.797.163c-.203.047-.238.292-.238.478zm8.187 1.945c0 1.712-1.321 3.273-3.01 3.273-1.786 0-2.857-.943-2.857-3.203 0-1.735 1.345-3.378 2.963-3.378 1.928 0 2.904 1.06 2.904 3.308zm-1.166-.07c0-1.176-.25-2.457-1.869-2.457-1.452 0-1.69 1.397-1.69 2.609 0 1.328.357 2.33 1.904 2.33 1.44 0 1.655-1.224 1.655-2.482zm5.628.291l-3.344-.011v-.769l3.344-.186v.966zm.62 4.753v-2.563h.785a7.439 7.439 0 0 0 .773-1.49c.214-.595.536-2.517.536-2.89 0-.29-.06-.372-.393-.465l-.548-.152c0-.081.024-.5.048-.594h5.593c.036.163.048.408.048.594l-.738.152c-.226.046-.298.21-.298.442v2.656l.06 1.747h1.154v2.54c-.095.023-.535.023-.619-.012-.107-.42-.38-1.759-.987-1.759h-3.57c-1.19 0-1.13 1.363-1.238 1.782-.083.035-.5.024-.607.012zm1.7-2.563h3l.035-1.747V51.66H23.65c-.107 1.235-.38 2.877-.607 3.518a8.695 8.695 0 0 1-.571 1.304zm12.734-2.597c0 2.656-1.583 3.46-3.201 3.46-.571 0-.81-.024-1.13-.07l.07 1.514c0 .128 0 .21.227.256l.952.175c.012.128.012.442-.048.594h-3.177a1.945 1.945 0 0 1-.036-.548l.429-.175c.25-.104.44-.384.44-.733l.036-4.31V51.66h-1.202v-.57c.416-.082 1.25-.257 1.773-.257.333 0 .464.105.464.42v.256c.393-.327.928-.71 1.678-.71 1.856 0 2.725 1.117 2.725 3.086zm-1.154.233c0-1.153-.44-2.528-1.762-2.528-.69 0-1.261.373-1.475.536v1.945l.036 2.423c.297.047.345.093 1.19.093 1.428 0 2.01-1.037 2.01-2.47zm8.354-3.227c0 .198 0 .408-.048.548-.262.093-.488.128-.774.838l-2.38 5.906c-.32.769-.75 1.398-1.416 1.817l-.654-.827c.369-.233 1.023-.804 1.237-1.281l.31-.676-2.035-5.125a1.318 1.318 0 0 0-.774-.676c0-.163-.012-.372.048-.524h2.63c0 .233-.012.466-.048.606h-.916l1.737 4.508 1.428-3.658c.131-.338.036-.722-.333-.85l-.25-.093s-.012-.373.012-.513h2.226zm5.795 1.77c-.12.024-.44.036-.524-.01-.119-.49-.273-.91-.987-.956l-1.607-.082v2.447l.06 2.108c0 .186.023.28.178.303l1.238.186c0 .105 0 .466-.048.594h-3.415c-.024-.175-.072-.338-.036-.512l.547-.257c.262-.116.405-.466.405-.675l.036-1.736v-1.875c0-.21-.084-.443-.345-.548l-.62-.244a2.59 2.59 0 0 1 .037-.513h5.08v1.77zm6.819 1.41c0 1.712-1.321 3.273-3.011 3.273-1.785 0-2.856-.943-2.856-3.203 0-1.735 1.345-3.378 2.963-3.378 1.928 0 2.904 1.06 2.904 3.308zm-1.167-.07c0-1.176-.25-2.457-1.868-2.457-1.452 0-1.69 1.397-1.69 2.609 0 1.328.357 2.33 1.904 2.33 1.44 0 1.654-1.224 1.654-2.482zm10.14-1.619l.392 3.67c.024.209.179.395.345.465l.667.198c0 .082-.024.431-.048.536h-2.832a3.84 3.84 0 0 1-.036-.512l.393-.117c.404-.116.5-.652.452-1.002l-.262-3.005-.024-.489h-.047l-1.952 5.113-.88.198-1.893-5.346h-.06v.454l-.451 3.553c-.024.163 0 .268.095.303l.988.268c0 .081-.024.477-.06.582h-2.725c-.024-.14.012-.466.024-.594l.464-.163c.262-.128.416-.431.476-.71l.464-3.588c.048-.221-.083-.454-.262-.513l-.666-.198c0-.081.035-.5.06-.594h2.308l1.25 3.67.523 1.386h.083l.5-1.433 1.416-3.623h2.118c.036.117.072.513.072.618l-.548.163c-.226.07-.392.314-.345.71zm8.591-1.49c0 .197 0 .407-.047.547-.262.093-.488.128-.774.838l-2.38 5.906c-.321.769-.75 1.398-1.416 1.817l-.655-.827c.37-.233 1.024-.804 1.238-1.281l.31-.676-2.035-5.125a1.318 1.318 0 0 0-.774-.676c0-.163-.012-.372.048-.524h2.63c0 .233-.012.466-.048.606h-.916l1.737 4.508 1.428-3.658c.131-.338.036-.722-.333-.85l-.25-.093s-.012-.373.012-.513h2.225z"/>
  </g>
</svg>
