<?xml version="1.0" encoding="UTF-8"?>
<svg width="48px" height="48px" viewBox="0 0 48 48" version="1.1" xmlns="http://www.w3.org/2000/svg" xmlns:xlink="http://www.w3.org/1999/xlink">
    <!-- Generator: Sketch 44.1 (41455) - http://www.bohemiancoding.com/sketch -->
    <title>Group 13 Copy</title>
    <desc>Created with Sketch.</desc>
    <defs>
        <circle id="path-1" cx="20" cy="20" r="20"></circle>
        <filter x="-17.5%" y="-12.5%" width="135.0%" height="135.0%" filterUnits="objectBoundingBox" id="filter-2">
            <feOffset dx="0" dy="2" in="SourceAlpha" result="shadowOffsetOuter1"></feOffset>
            <feGaussianBlur stdDeviation="2" in="shadowOffsetOuter1" result="shadowBlurOuter1"></feGaussianBlur>
            <feColorMatrix values="0 0 0 0 0   0 0 0 0 0   0 0 0 0 0  0 0 0 0.178442029 0" type="matrix" in="shadowBlurOuter1"></feColorMatrix>
        </filter>
        <polygon id="path-3" points="4.29412254 15.9706784 8.58820858 15.9706784 8.58820858 0 4.29412254 0 3.64933906e-05 0 3.64933906e-05 15.9706784"></polygon>
    </defs>
    <g id="Events" stroke="none" stroke-width="1" fill="none" fill-rule="evenodd">
        <g id="Group-13-Copy" transform="translate(4.000000, 2.000000)">
            <g id="Oval">
                <use fill="black" fill-opacity="1" filter="url(#filter-2)" xlink:href="#path-1"></use>
                <use fill="#F6F6F6" fill-rule="evenodd" xlink:href="#path-1"></use>
            </g>
            <g id="Page-1" transform="translate(16.000000, 12.000000)">
                <mask id="mask-4" fill="white">
                    <use xlink:href="#path-3"></use>
                </mask>
                <g id="Clip-2"></g>
                <path d="M5.5744749,15.9706784 L5.5744749,8.68574449 L8.1066053,8.68574449 L8.48569865,5.84662555 L5.5744749,5.84662555 L5.5744749,4.03397357 C5.5744749,3.21198238 5.8108061,2.65177093 7.03143703,2.65177093 L8.58824507,2.65113656 L8.58824507,0.111859031 C8.31892385,0.0773215859 7.39483821,0 6.31974292,0 C4.07525343,0 2.53858973,1.32306608 2.53858973,3.75288106 L2.53858973,5.84662555 L3.64933906e-05,5.84662555 L3.64933906e-05,8.68574449 L2.53858973,8.68574449 L2.53858973,15.9706784 L5.5744749,15.9706784 Z" id="Fill-1" fill="#181818" mask="url(#mask-4)"></path>
            </g>
        </g>
    </g>
</svg>