<svg width="123" height="30" viewBox="0 0 123 30" version="1.1" xmlns="http://www.w3.org/2000/svg" xmlns:xlink="http://www.w3.org/1999/xlink">
<title>Page 1</title>
<desc>Created using Figma</desc>
<g id="Canvas" transform="translate(-434 499)">
<g id="Page 1">
<g id="Fill 1">
<use xlink:href="#path0_fill" transform="translate(509.346 -498.656)" fill="#FEFEFE"/>
</g>
<g id="Fill 3">
<use xlink:href="#path1_fill" transform="translate(513.497 -498.468)" fill="#FEFEFE"/>
</g>
<g id="Fill 5">
<use xlink:href="#path2_fill" transform="translate(517.537 -498.401)" fill="#FEFEFE"/>
</g>
<g id="Fill 7">
<use xlink:href="#path3_fill" transform="translate(520.794 -498.401)" fill="#FEFEFE"/>
</g>
<g id="Fill 9">
<use xlink:href="#path4_fill" transform="translate(509.346 -493.177)" fill="#FEFEFE"/>
</g>
<g id="Fill 11">
<use xlink:href="#path5_fill" transform="translate(512.228 -493.195)" fill="#FEFEFE"/>
</g>
<g id="Fill 13">
<use xlink:href="#path6_fill" transform="translate(515.977 -493.127)" fill="#FEFEFE"/>
</g>
<g id="Fill 15">
<use xlink:href="#path7_fill" transform="translate(519.847 -493.128)" fill="#FEFEFE"/>
</g>
<g id="Fill 17">
<use xlink:href="#path8_fill" transform="translate(522.278 -494.149)" fill="#FEFEFE"/>
</g>
<g id="Fill 19">
<use xlink:href="#path9_fill" transform="translate(525.711 -493.177)" fill="#FEFEFE"/>
</g>
<g id="Fill 21">
<use xlink:href="#path10_fill" transform="translate(528.557 -493.128)" fill="#FEFEFE"/>
</g>
<g id="Fill 23">
<use xlink:href="#path11_fill" transform="translate(531.192 -493.128)" fill="#FEFEFE"/>
</g>
<g id="Fill 25">
<use xlink:href="#path12_fill" transform="translate(534.203 -493.128)" fill="#FEFEFE"/>
</g>
<g id="Fill 27">
<use xlink:href="#path13_fill" transform="translate(537.52 -493.128)" fill="#FEFEFE"/>
</g>
<g id="Fill 29">
<use xlink:href="#path14_fill" transform="translate(509.481 -487.854)" fill="#FEFEFE"/>
</g>
<g id="Fill 31">
<use xlink:href="#path15_fill" transform="translate(512.408 -487.854)" fill="#FEFEFE"/>
</g>
<g id="Fill 33">
<use xlink:href="#path16_fill" transform="translate(514.84 -487.854)" fill="#FEFEFE"/>
</g>
<g id="Fill 35">
<use xlink:href="#path17_fill" transform="translate(519.567 -487.854)" fill="#FEFEFE"/>
</g>
<g id="Fill 37">
<use xlink:href="#path18_fill" transform="translate(521.999 -487.854)" fill="#FEFEFE"/>
</g>
<g id="Fill 39">
<use xlink:href="#path19_fill" transform="translate(525.548 -487.854)" fill="#FEFEFE"/>
</g>
<g id="Fill 41">
<use xlink:href="#path20_fill" transform="translate(529.116 -487.921)" fill="#FEFEFE"/>
</g>
<g id="Fill 43">
<use xlink:href="#path21_fill" transform="translate(509.481 -482.58)" fill="#FEFEFE"/>
</g>
<g id="Fill 45">
<use xlink:href="#path22_fill" transform="translate(512.982 -482.581)" fill="#FEFEFE"/>
</g>
<g id="Fill 47">
<use xlink:href="#path23_fill" transform="translate(515.773 -482.648)" fill="#FEFEFE"/>
</g>
<g id="Fill 49">
<use xlink:href="#path24_fill" transform="translate(519.815 -482.58)" fill="#FEFEFE"/>
</g>
<g id="Fill 51">
<use xlink:href="#path25_fill" transform="translate(522.504 -482.58)" fill="#FEFEFE"/>
</g>
<g id="Fill 53">
<use xlink:href="#path26_fill" transform="translate(526.279 -482.581)" fill="#FEFEFE"/>
</g>
<g id="Fill 55">
<use xlink:href="#path27_fill" transform="translate(528.576 -482.58)" fill="#FEFEFE"/>
</g>
<g id="Fill 57">
<use xlink:href="#path28_fill" transform="translate(534.056 -482.58)" fill="#FEFEFE"/>
</g>
<g id="Fill 59">
<use xlink:href="#path29_fill" transform="translate(537.227 -482.58)" fill="#FEFEFE"/>
</g>
<g id="Fill 61">
<use xlink:href="#path30_fill" transform="translate(540.407 -482.581)" fill="#FEFEFE"/>
</g>
<g id="Fill 63">
<use xlink:href="#path31_fill" transform="translate(543.041 -482.58)" fill="#FEFEFE"/>
</g>
<g id="Fill 65">
<use xlink:href="#path32_fill" transform="translate(546.361 -482.648)" fill="#FEFEFE"/>
</g>
<g id="Fill 67">
<use xlink:href="#path33_fill" transform="translate(549.392 -482.58)" fill="#FEFEFE"/>
</g>
<g id="Fill 69">
<use xlink:href="#path34_fill" transform="translate(553.596 -482.58)" fill="#FEFEFE"/>
</g>
<g id="Fill 71">
<use xlink:href="#path35_fill" transform="translate(509.481 -477.307)" fill="#FEFEFE"/>
</g>
<g id="Fill 73">
<use xlink:href="#path36_fill" transform="translate(513.771 -477.307)" fill="#FEFEFE"/>
</g>
<g id="Fill 75">
<use xlink:href="#path37_fill" transform="translate(516.563 -477.375)" fill="#FEFEFE"/>
</g>
<g id="Fill 77">
<use xlink:href="#path38_fill" transform="translate(520.469 -477.357)" fill="#FEFEFE"/>
</g>
<g id="Fill 79">
<use xlink:href="#path39_fill" transform="translate(523.352 -477.357)" fill="#FEFEFE"/>
</g>
<g id="Fill 81">
<use xlink:href="#path40_fill" transform="translate(526.369 -477.307)" fill="#FEFEFE"/>
</g>
<g id="Fill 83">
<use xlink:href="#path41_fill" transform="translate(529.938 -477.307)" fill="#FEFEFE"/>
</g>
<g id="Group 87">
<mask id="mask0_outline" mask-type="alpha">
<g id="Clip 86">
<use xlink:href="#path42_fill" transform="translate(434 -498.698)" fill="#FFFFFF"/>
</g>
</mask>
<g id="Fill 85" mask="url(#mask0_outline)">
<use xlink:href="#path43_fill" transform="translate(434 -498.698)" fill="#FEFEFE"/>
</g>
</g>
<g id="Fill 88">
<use xlink:href="#path44_fill" transform="translate(482.976 -483.842)" fill="#FEFEFE"/>
</g>
<mask id="mask1_outline" mask-type="alpha">
<g id="Clip 91">
<use xlink:href="#path45_fill" transform="translate(434 -498.698)" fill="#FFFFFF"/>
</g>
</mask>
<g id="Fill 90" mask="url(#mask1_outline)">
<use xlink:href="#path46_fill" transform="translate(470.908 -483.842)" fill="#FEFEFE"/>
</g>
<g id="Fill 92" mask="url(#mask1_outline)">
<use xlink:href="#path47_fill" transform="translate(460.263 -483.843)" fill="#FEFEFE"/>
</g>
<g id="Fill 93" mask="url(#mask1_outline)">
<use xlink:href="#path48_fill" transform="translate(450.411 -484.032)" fill="#FEFEFE"/>
</g>
<g id="Fill 94" mask="url(#mask1_outline)">
<use xlink:href="#path49_fill" transform="translate(440.093 -484.609)" fill="#FEFEFE"/>
</g>
</g>
</g>
<defs>
<path id="path0_fill" fill-rule="evenodd" d="M 2.11469 2.22568L 2.15477 2.22568C 2.30845 2.22568 2.47123 2.20788 2.60213 2.0821C 2.71906 1.9702 2.77828 1.78682 2.77828 1.62062C 2.77828 1.40195 2.69142 1.25385 2.60213 1.17332C 2.46182 1.04815 2.28142 1.03427 2.15052 1.03427L 2.11469 1.03427L 2.11469 2.22568ZM 1.4116 1.03427C 1.28071 1.03427 1.10031 1.04815 0.960604 1.17332C 0.870404 1.25385 0.78476 1.40195 0.78476 1.62062C 0.78476 1.78682 0.843071 1.9702 0.960604 2.0821C 1.09089 2.20788 1.25368 2.22568 1.40735 2.22568L 1.44805 2.22568L 1.44805 1.03427L 1.4116 1.03427ZM 1.38884 2.82529C 0.820911 2.82529 0.518422 2.6778 0.320104 2.48506C 0.0537556 2.22114 0 1.91711 0 1.64293C 0 1.39259 0.0452518 1.03909 0.324356 0.775168C 0.572481 0.536886 0.973674 0.434637 1.38884 0.434637L 1.38884 0L 2.173 0L 2.173 0.434637C 2.58847 0.434637 2.98966 0.536886 3.23748 0.775168C 3.51689 1.03909 3.56214 1.39259 3.56214 1.64293C 3.56214 1.91711 3.50839 2.22114 3.24204 2.48506C 3.04372 2.6778 2.74153 2.82529 2.173 2.82529L 2.173 3.24213L 1.38884 3.24213L 1.38884 2.82529Z"/>
<path id="path1_fill" fill-rule="evenodd" d="M 1.04993 0.989608C 0.888057 1.14645 0.811523 1.36603 0.811523 1.57626C 0.811523 1.84048 0.937257 2.02447 1.04993 2.13185C 1.19419 2.27059 1.39767 2.36862 1.65886 2.36862C 1.9249 2.36862 2.12352 2.27482 2.26292 2.13637C 2.40263 1.99763 2.5068 1.79132 2.5068 1.56299C 2.5068 1.33014 2.40263 1.12383 2.26292 0.989608C 2.09558 0.833066 1.86629 0.752533 1.65886 0.752533C 1.44262 0.752533 1.21211 0.829145 1.04993 0.989608L 1.04993 0.989608ZM 2.84479 2.6781C 2.53775 2.96886 2.10527 3.12118 1.65883 3.12118C 1.21208 3.12118 0.779304 2.96886 0.473474 2.6781C 0.152763 2.37346 0 1.95722 0 1.563C 0 1.16426 0.152763 0.743497 0.473474 0.443082C 0.779304 0.152319 1.21208 0 1.65883 0C 2.10527 0 2.53775 0.152319 2.84479 0.443082C 3.1649 0.743497 3.31827 1.16426 3.31827 1.563C 3.31827 1.95722 3.1649 2.37346 2.84479 2.6781L 2.84479 2.6781Z"/>
<path id="path2_fill" fill-rule="evenodd" d="M 0.780215 1.11479L 1.90756 1.11479L 1.90756 0L 2.69203 0L 2.69203 2.98666L 1.90756 2.98666L 1.90756 1.77776L 0.780215 1.77776L 0.780215 2.98666L 0 2.98666L 0 0L 0.780215 0L 0.780215 1.11479Z"/>
<path id="path3_fill" fill-rule="evenodd" d="M 1.36179 1.30329C 1.36179 1.44626 1.35237 1.70626 1.2892 1.93006C 1.23544 2.11827 1.15375 2.25672 1.02802 2.38672L 2.09189 2.38672L 2.09189 0.599609L 1.36179 0.599609L 1.36179 1.30329ZM 2.87668 0L 2.87668 2.38673L 3.23748 2.38673L 3.23748 3.65867L 2.5341 3.65867L 2.5341 2.98666L 0.703074 2.98666L 0.703074 3.65867L 0 3.65867L 0 2.38673C 0.116622 2.36863 0.229904 2.32369 0.342578 2.20727C 0.567926 1.97472 0.604067 1.65198 0.604067 1.2267L 0.604067 0L 2.87668 0Z"/>
<path id="path4_fill" fill-rule="evenodd" d="M 2.29539 2.95589C 1.9841 3.06779 1.81311 3.10399 1.61904 3.10399C 1.09546 3.10399 0.703378 2.89768 0.455252 2.65548C 0.162481 2.36441 0 1.95722 0 1.56783C 0 1.14224 0.184956 0.738973 0.455252 0.465704C 0.721296 0.197261 1.1231 0 1.59201 0C 1.73597 0 1.97529 0.0226216 2.29539 0.152319L 2.29539 1.0795C 2.04301 0.770342 1.74539 0.752244 1.61449 0.752244C 1.38914 0.752244 1.21755 0.819506 1.07359 0.949807C 0.888637 1.11992 0.811496 1.35277 0.811496 1.5633C 0.811496 1.76931 0.897748 1.99734 1.05537 2.14513C 1.18566 2.26638 1.39339 2.35114 1.61449 2.35114C 1.73172 2.35114 2.01963 2.33757 2.29539 2.03806L 2.29539 2.95589Z"/>
<path id="path5_fill" fill-rule="evenodd" d="M 1.05115 0.989635C 0.888969 1.14648 0.811829 1.36576 0.811829 1.57629C 0.811829 1.84021 0.938169 2.0239 1.05115 2.13127C 1.1951 2.27002 1.39798 2.36865 1.65977 2.36865C 1.92521 2.36865 2.12444 2.27484 2.26384 2.1358C 2.40354 1.99735 2.5068 1.79104 2.5068 1.56272C 2.5068 1.33017 2.40354 1.12386 2.26384 0.989635C 2.0968 0.832791 1.8669 0.752258 1.65977 0.752258C 1.44292 0.752258 1.21302 0.828569 1.05115 0.989635L 1.05115 0.989635ZM 2.8451 2.6775C 2.53866 2.96946 2.10619 3.12148 1.65974 3.12148C 1.21299 3.12148 0.780215 2.96946 0.473778 2.6775C 0.153674 2.37346 0 1.95692 0 1.5627C 0 1.16426 0.153674 0.743196 0.473778 0.442781C 0.780215 0.152017 1.21299 0 1.65974 0C 2.10619 0 2.53866 0.152017 2.8451 0.442781C 3.16581 0.743196 3.31857 1.16426 3.31857 1.5627C 3.31857 1.95692 3.16581 2.37346 2.8451 2.6775L 2.8451 2.6775Z"/>
<path id="path6_fill" fill-rule="evenodd" d="M 1.36117 1.30299C 1.36117 1.44596 1.35237 1.70596 1.2892 1.93007C 1.23453 2.11828 1.15374 2.25702 1.0271 2.38702L 2.09188 2.38702L 2.09188 0.599915L 1.36117 0.599915L 1.36117 1.30299ZM 2.87668 0L 2.87668 2.38703L 3.23657 2.38703L 3.23657 3.65837L 2.53319 3.65837L 2.53319 2.98636L 0.703074 2.98636L 0.703074 3.65837L 0 3.65837L 0 2.38703C 0.116622 2.36894 0.229296 2.32399 0.342274 2.20757C 0.567926 1.97472 0.603459 1.65198 0.603459 1.227L 0.603459 0L 2.87668 0Z"/>
<path id="path7_fill" fill-rule="evenodd" d="M 1.70894 0.658138L 0.780215 0.658138L 0.780215 1.15521L 1.66035 1.15521L 1.66035 1.81365L 0.780215 1.81365L 0.780215 2.32882L 1.70894 2.32882L 1.70894 2.98666L 0 2.98666L 0 0L 1.70894 0L 1.70894 0.658138Z"/>
<path id="path8_fill" fill-rule="evenodd" d="M 2.27779 0.197261C 2.19184 0.429811 2.03391 0.564334 1.90727 0.630992C 1.77668 0.70308 1.59628 0.747418 1.33084 0.747418C 1.15894 0.747418 0.938152 0.725098 0.762308 0.630992C 0.636271 0.564334 0.477737 0.429811 0.3927 0.197261L 0.915678 0C 0.942404 0.0853589 0.996159 0.165892 1.05933 0.210532C 1.14528 0.273269 1.25886 0.282318 1.33509 0.282318C 1.39826 0.282318 1.52005 0.273269 1.61025 0.210532C 1.67251 0.165892 1.72687 0.0853589 1.7539 0L 2.27779 0.197261ZM 0.78477 1.021L 0.78477 2.90191L 1.91181 1.021L 2.70964 1.021L 2.70964 4.00765L 1.92579 4.00765L 1.92579 2.12734L 0.798437 4.00765L 0 4.00765L 0 1.021L 0.78477 1.021Z"/>
<path id="path9_fill" fill-rule="evenodd" d="M 2.29509 2.95589C 1.9841 3.06779 1.81311 3.10399 1.61874 3.10399C 1.09546 3.10399 0.703378 2.89768 0.455252 2.65548C 0.162481 2.36441 0 1.95722 0 1.56783C 0 1.14224 0.184956 0.738973 0.455252 0.465704C 0.721296 0.197261 1.1231 0 1.59201 0C 1.73597 0 1.97438 0.0226216 2.29509 0.152319L 2.29509 1.0795C 2.04301 0.770342 1.74478 0.752244 1.61388 0.752244C 1.38853 0.752244 1.21724 0.819506 1.07299 0.949807C 0.888637 1.11992 0.811496 1.35277 0.811496 1.5633C 0.811496 1.76931 0.897444 1.99734 1.05537 2.14513C 1.18566 2.26638 1.39339 2.35114 1.61388 2.35114C 1.73172 2.35114 2.01963 2.33757 2.29509 2.03806L 2.29509 2.95589Z"/>
<path id="path10_fill" fill-rule="evenodd" d="M 1.41587 0.658138L 1.41587 2.98666L 0.635652 2.98666L 0.635652 0.658138L 0 0.658138L 0 0L 2.06549 0L 2.06549 0.658138L 1.41587 0.658138Z"/>
<path id="path11_fill" fill-rule="evenodd" d="M 0.779602 2.38221L 0.955446 2.38221C 1.17229 2.38221 1.35269 2.35989 1.43834 2.26156C 1.47387 2.22114 1.5009 2.15388 1.5009 2.06882C 1.5009 1.97471 1.46962 1.89901 1.42467 1.85437C 1.32991 1.75996 1.13585 1.75574 0.942387 1.75574L 0.779602 1.75574L 0.779602 2.38221ZM 0.779602 1.17753L 0.924469 1.17753C 1.00556 1.17753 1.14101 1.16878 1.22179 1.08343C 1.27099 1.03456 1.29347 0.954331 1.29347 0.886768C 1.29347 0.810458 1.26674 0.734449 1.22179 0.685285C 1.17229 0.635819 1.07754 0.595703 0.924469 0.595703L 0.779602 0.595703L 0.779602 1.17753ZM 0 2.98666L 0 0L 1.16349 0C 1.37973 0 1.63605 0.0313686 1.82192 0.232852C 1.92487 0.344754 2.00627 0.528441 2.00627 0.79236C 2.00627 0.922661 1.98379 1.03456 1.92062 1.15974C 1.85745 1.27646 1.78973 1.34372 1.67705 1.39289C 1.83559 1.41038 1.99321 1.48247 2.08796 1.57175C 2.20914 1.68818 2.29023 1.88091 2.29023 2.11859C 2.29023 2.4 2.18241 2.59274 2.06974 2.70464C 1.90665 2.87053 1.62299 2.98666 1.25369 2.98666L 0 2.98666Z"/>
<path id="path12_fill" fill-rule="evenodd" d="M 0.785681 0L 0.785681 1.88061L 1.91273 0L 2.71056 0L 2.71056 2.98636L 1.92579 2.98636L 1.92579 1.10635L 0.798741 2.98636L 0 2.98636L 0 0L 0.785681 0Z"/>
<path id="path13_fill" fill-rule="evenodd" d="M 1.62331 0.653625L 1.40191 0.653625C 1.32082 0.653625 1.17231 0.65815 1.06389 0.75678C 1.01439 0.801722 0.960632 0.882255 0.960632 1.01195C 0.960632 1.12416 1.00072 1.21344 1.05539 1.26712C 1.13617 1.34343 1.28499 1.37028 1.40191 1.37028L 1.62331 1.37028L 1.62331 0.653625ZM 0.838526 1.86282C 0.730407 1.84472 0.553956 1.79555 0.391778 1.62966C 0.234156 1.4692 0.157926 1.27164 0.157926 1.00289C 0.157926 0.707604 0.257541 0.456957 0.405141 0.299812C 0.662681 0.0268443 1.04656 0 1.24883 0L 2.40776 0L 2.40776 2.98636L 1.6233 2.98636L 1.6233 1.97019L 1.54676 1.97019L 0.901696 2.98636L 0 2.98636L 0.838526 1.86282Z"/>
<path id="path14_fill" fill-rule="evenodd" d="M 0.780212 1.36997L 1.04109 1.36997C 1.12279 1.36997 1.27616 1.36152 1.37061 1.27586C 1.46537 1.19563 1.46992 1.07438 1.46992 1.00289C 1.46992 0.922661 1.46081 0.814982 1.37972 0.734449C 1.28952 0.640343 1.14526 0.62677 1.04565 0.62677L 0.780212 0.62677L 0.780212 1.36997ZM 0.780215 1.99734L 0.780215 2.98696L 0 2.98696L 0 0L 1.24397 0C 1.50607 0 1.77636 0.0488627 2.00627 0.268745C 2.24133 0.492548 2.28567 0.743799 2.28567 0.994447C 2.28567 1.23122 2.25439 1.50931 2.01933 1.73764C 1.78517 1.96627 1.50607 1.99734 1.27191 1.99734L 0.780215 1.99734Z"/>
<path id="path15_fill" fill-rule="evenodd" d="M 1.70924 0.65844L 0.780215 0.65844L 0.780215 1.15551L 1.65974 1.15551L 1.65974 1.81395L 0.780215 1.81395L 0.780215 2.32882L 1.70924 2.32882L 1.70924 2.98726L 0 2.98726L 0 0L 1.70924 0L 1.70924 0.65844Z"/>
<path id="path16_fill" fill-rule="evenodd" d="M 0 0L 0.78477 0L 0.78477 2.33334L 1.5416 2.33334L 1.5416 0L 2.32637 0L 2.32637 2.33334L 3.08411 2.33334L 3.08411 0L 3.86797 0L 3.86797 2.98696L 0 2.98696L 0 0Z"/>
<path id="path17_fill" fill-rule="evenodd" d="M 1.70894 0.65844L 0.780215 0.65844L 0.780215 1.15551L 1.65974 1.15551L 1.65974 1.81395L 0.780215 1.81395L 0.780215 2.32882L 1.70894 2.32882L 1.70894 2.98726L 0 2.98726L 0 0L 1.70894 0L 1.70894 0.65844Z"/>
<path id="path18_fill" fill-rule="evenodd" d="M 0.780215 1.11479L 1.90756 1.11479L 1.90756 0L 2.69233 0L 2.69233 2.98696L 1.90756 2.98696L 1.90756 1.77776L 0.780215 1.77776L 0.780215 2.98696L 0 2.98696L 0 0L 0.780215 0L 0.780215 1.11479Z"/>
<path id="path19_fill" fill-rule="evenodd" d="M 0.784467 0L 0.784467 1.88061L 1.91181 0L 2.70964 0L 2.70964 2.98696L 1.92487 2.98696L 1.92487 1.10635L 0.798437 2.98696L 0 2.98696L 0 0L 0.784467 0Z"/>
<path id="path20_fill" fill-rule="evenodd" d="M 2.15991 0.998958C 2.02021 1.1374 1.9212 1.33919 1.9212 1.56299C 1.9212 1.77774 2.00715 1.98405 2.16933 2.13607C 2.34426 2.30649 2.56202 2.36892 2.75548 2.36892C 2.98963 2.36892 3.19767 2.26637 3.33707 2.13185C 3.48558 1.98405 3.5852 1.75573 3.5852 1.54912C 3.5852 1.35698 3.49925 1.14193 3.33707 0.985385C 3.16123 0.81527 2.9538 0.752533 2.76003 0.752533C 2.52041 0.752533 2.30873 0.850862 2.15991 0.998958L 2.15991 0.998958ZM 1.16865 1.22277C 1.20844 1.00319 1.31261 0.662964 1.65974 0.367074C 1.97529 0.0986302 2.34429 0 2.73303 0C 3.30946 0 3.68848 0.219581 3.91839 0.439161C 4.21632 0.716653 4.40127 1.12414 4.40127 1.55848C 4.40127 1.98407 4.21632 2.40061 3.91839 2.68292C 3.6979 2.89315 3.32799 3.12148 2.73303 3.12148C 2.28203 3.12148 1.9437 2.99571 1.65063 2.73601C 1.32567 2.44494 1.20449 2.11829 1.16865 1.8227L 0.780215 1.8227L 0.780215 3.05422L 0 3.05422L 0 0.0672616L 0.780215 0.0672616L 0.780215 1.22277L 1.16865 1.22277Z"/>
<path id="path21_fill" fill-rule="evenodd" d="M 1.85806 2.98636L 1.85806 0.662361L 0.780215 0.662361L 0.780215 2.98636L 0 2.98636L 0 0L 2.64283 0L 2.64283 2.98636L 1.85806 2.98636Z"/>
<path id="path22_fill" fill-rule="evenodd" d="M 0.780212 1.37026L 1.0417 1.37026C 1.12279 1.37026 1.27616 1.36121 1.37061 1.27615C 1.46598 1.19532 1.46962 1.07497 1.46962 1.00258C 1.46962 0.922352 1.46081 0.814673 1.37942 0.733839C 1.28922 0.640034 1.14526 0.62616 1.04626 0.62616L 0.780212 0.62616L 0.780212 1.37026ZM 0.780215 1.99704L 0.780215 2.98636L 0 2.98636L 0 0L 1.24397 0C 1.50607 0 1.77636 0.0488627 2.00627 0.268443C 2.24133 0.491945 2.28628 0.743196 2.28628 0.993843C 2.28628 1.23122 2.2547 1.50871 2.01933 1.73734C 1.78578 1.96627 1.50607 1.99704 1.271 1.99704L 0.780215 1.99704Z"/>
<path id="path23_fill" fill-rule="evenodd" d="M 1.05079 0.989913C 0.888608 1.14676 0.812378 1.36634 0.812378 1.57627C 0.812378 1.84079 0.938111 2.02447 1.05079 2.13185C 1.19504 2.2706 1.39853 2.36923 1.65941 2.36923C 1.92484 2.36923 2.12407 2.27512 2.26378 2.13638C 2.40348 1.99763 2.50765 1.79162 2.50765 1.56299C 2.50765 1.33014 2.40348 1.12444 2.26378 0.989913C 2.09644 0.833069 1.86653 0.752838 1.65941 0.752838C 1.44287 0.752838 1.21296 0.829148 1.05079 0.989913L 1.05079 0.989913ZM 2.8457 2.6781C 2.53866 2.96916 2.10619 3.12178 1.65944 3.12178C 1.21299 3.12178 0.780215 2.96916 0.474385 2.6781C 0.15337 2.37406 0 1.95722 0 1.563C 0 1.16486 0.15337 0.743799 0.474385 0.443384C 0.780215 0.152621 1.21299 0 1.65944 0C 2.10619 0 2.53866 0.152621 2.8457 0.443384C 3.16581 0.743799 3.31918 1.16486 3.31918 1.563C 3.31918 1.95722 3.16581 2.37406 2.8457 2.6781L 2.8457 2.6781Z"/>
<path id="path24_fill" fill-rule="evenodd" d="M 1.05539 2.38191C 1.14103 2.38191 1.30777 2.37738 1.40252 2.27906C 1.44747 2.22959 1.47966 2.1581 1.47966 2.06852C 1.47966 1.96597 1.43866 1.88936 1.38946 1.84472C 1.29926 1.76871 1.1544 1.76389 1.05539 1.76389L 0.78479 1.76389L 0.78479 2.38191L 1.05539 2.38191ZM 0 0L 1.95737 0L 1.95737 0.657837L 0.78477 0.657837L 0.78477 1.1727L 1.0909 1.1727C 1.47509 1.1727 1.81767 1.23122 2.04301 1.46377C 2.18272 1.61187 2.27292 1.83145 2.27292 2.08209C 2.27292 2.32399 2.18697 2.55654 2.02479 2.71761C 1.78547 2.95076 1.42498 2.98636 1.06418 2.98636L 0 2.98636L 0 0Z"/>
<path id="path25_fill" fill-rule="evenodd" d="M 2.91768 0L 2.91768 2.98636L 2.13291 2.98636L 2.13291 0.653614L 1.37517 0.653614L 1.37517 1.74156C 1.37517 2.02871 1.3527 2.48114 1.06023 2.7716C 0.901696 2.92392 0.676956 3.02707 0.356244 3.02707C 0.198622 3.02707 0.0589185 3.00023 0 2.98636L 0 2.27C 0.054363 2.2881 0.117837 2.30167 0.180096 2.30167C 0.302489 2.30167 0.387526 2.26096 0.441585 2.21149C 0.491696 2.16685 0.599815 2.04198 0.599815 1.64746L 0.599815 0L 2.91768 0Z"/>
<path id="path26_fill" fill-rule="evenodd" d="M 1.70894 0.658138L 0.780215 0.658138L 0.780215 1.15521L 1.65944 1.15521L 1.65944 1.81365L 0.780215 1.81365L 0.780215 2.32882L 1.70894 2.32882L 1.70894 2.98666L 0 2.98666L 0 0L 1.70894 0L 1.70894 0.658138Z"/>
<path id="path27_fill" fill-rule="evenodd" d="M 0 2.98636L 0.509311 0L 1.28011 0L 1.88873 1.59407L 2.5338 0L 3.31401 0L 3.76471 2.98636L 2.9845 2.98636L 2.7637 1.26681L 2.03785 2.98636L 1.72656 2.98636L 1.03199 1.26681L 0.775356 2.98636L 0 2.98636Z"/>
<path id="path28_fill" fill-rule="evenodd" d="M 1.9118 1.89357L 1.57287 0.926575L 1.24426 1.89357L 1.9118 1.89357ZM 2.11924 2.48536L 1.02743 2.48536L 0.824556 2.98636L 0 2.98636L 1.15407 0L 2.00657 0L 3.13787 2.98636L 2.3039 2.98636L 2.11924 2.48536Z"/>
<path id="path29_fill" fill-rule="evenodd" d="M 0.874059 0L 1.44715 1.32955L 1.94796 0L 2.78223 0L 1.42893 2.98636L 0.603459 2.98636L 1.02318 2.14905L 0 0L 0.874059 0Z"/>
<path id="path30_fill" fill-rule="evenodd" d="M 1.41526 0.658138L 1.41526 2.98666L 0.635652 2.98666L 0.635652 0.658138L 0 0.658138L 0 0L 2.06488 0L 2.06488 0.658138L 1.41526 0.658138Z"/>
<path id="path31_fill" fill-rule="evenodd" d="M 0.784163 0L 0.784163 1.88031L 1.91212 0L 2.70995 0L 2.70995 2.98636L 1.92518 2.98636L 1.92518 1.10574L 0.79783 2.98636L 0 2.98636L 0 0L 0.784163 0Z"/>
<path id="path32_fill" fill-rule="evenodd" d="M 0.221096 0.322735C 0.3608 0.228629 0.495948 0.165892 0.635652 0.112505C 0.856748 0.0316703 1.05021 0 1.27221 0C 1.70469 0 1.94401 0.139048 2.07916 0.268443C 2.24498 0.425287 2.3039 0.6138 2.3039 0.833079C 2.3039 0.994446 2.26836 1.12867 2.1733 1.26289C 2.09221 1.37932 1.99807 1.4511 1.8939 1.50057L 1.8939 1.51354C 2.01113 1.54913 2.13747 1.61699 2.22736 1.70175C 2.32212 1.79163 2.44421 1.9527 2.44421 2.20335C 2.44421 2.49924 2.29964 2.75863 2.06974 2.91547C 1.8037 3.09886 1.4517 3.12178 1.2218 3.12178C 0.969422 3.12178 0.735267 3.09042 0.495948 2.99178C 0.311296 2.91547 0.135452 2.79935 0 2.6781L 0.397244 2.11376C 0.491696 2.22144 0.604674 2.3065 0.712793 2.36471C 0.852496 2.4368 0.97823 2.46365 1.11854 2.46365C 1.22636 2.46365 1.36241 2.44102 1.44715 2.38703C 1.53735 2.33334 1.58685 2.23924 1.58685 2.14061C 1.58685 2.05073 1.53735 1.97049 1.4517 1.9165C 1.39795 1.88121 1.29378 1.84532 1.0824 1.84532L 0.789022 1.84532L 0.789022 1.24509L 0.983393 1.24509C 1.1316 1.24509 1.34844 1.22247 1.4517 1.11992C 1.50607 1.06593 1.52884 0.994446 1.52884 0.931408C 1.52884 0.846049 1.47873 0.770342 1.41161 0.721177C 1.33539 0.667187 1.22636 0.644565 1.1231 0.644565C 1.06387 0.644565 0.925081 0.649391 0.772015 0.725702C 0.685763 0.766119 0.586148 0.837603 0.522978 0.891895L 0.221096 0.322735Z"/>
<path id="path33_fill" fill-rule="evenodd" d="M 0 2.98636L 0.509919 0L 1.28072 0L 1.88934 1.59407L 2.5338 0L 3.31462 0L 3.76501 2.98636L 2.9845 2.98636L 2.7637 1.26681L 2.03785 2.98636L 1.72716 2.98636L 1.03259 1.26681L 0.775963 2.98636L 0 2.98636Z"/>
<path id="path34_fill" fill-rule="evenodd" d="M 1.9118 1.89357L 1.57378 0.926575L 1.24426 1.89357L 1.9118 1.89357ZM 2.11924 2.48536L 1.02773 2.48536L 0.825467 2.98636L 0 2.98636L 1.15407 0L 2.00627 0L 3.13878 2.98636L 2.3039 2.98636L 2.11924 2.48536Z"/>
<path id="path35_fill" fill-rule="evenodd" d="M 0.780212 2.3819L 0.955449 2.3819C 1.17229 2.3819 1.35269 2.35989 1.43834 2.26156C 1.47387 2.22084 1.5009 2.15358 1.5009 2.06882C 1.5009 1.97441 1.46992 1.89871 1.42467 1.85407C 1.33022 1.75996 1.13585 1.75574 0.94239 1.75574L 0.780212 1.75574L 0.780212 2.3819ZM 0.780212 1.17753L 0.924472 1.17753C 1.00556 1.17753 1.14071 1.16908 1.22149 1.08312C 1.27191 1.03426 1.29438 0.954328 1.29438 0.886764C 1.29438 0.810454 1.26675 0.734446 1.22149 0.685281C 1.17229 0.635514 1.07784 0.595398 0.924472 0.595398L 0.780212 0.595398L 0.780212 1.17753ZM 0 2.98696L 0 0L 1.16349 0C 1.37973 0 1.63696 0.031067 1.82161 0.232852C 1.92518 0.344754 2.00627 0.528139 2.00627 0.792058C 2.00627 0.922359 1.9847 1.03426 1.92062 1.15974C 1.85806 1.27616 1.78942 1.34342 1.67766 1.39289C 1.83559 1.41038 1.99321 1.48217 2.08796 1.57145C 2.20914 1.68818 2.28993 1.88061 2.28993 2.11829C 2.28993 2.4 2.18241 2.59274 2.06974 2.70464C 1.90756 2.87053 1.62299 2.98696 1.25369 2.98696L 0 2.98696Z"/>
<path id="path36_fill" fill-rule="evenodd" d="M 0.780212 1.37027L 1.04201 1.37027C 1.1234 1.37027 1.27616 1.36152 1.37152 1.27616C 1.46598 1.19533 1.47053 1.07468 1.47053 1.00319C 1.47053 0.922661 1.46172 0.81468 1.38033 0.734751C 1.29013 0.640343 1.14587 0.62677 1.04656 0.62677L 0.780212 0.62677L 0.780212 1.37027ZM 0.780215 1.99704L 0.780215 2.98696L 0 2.98696L 0 0L 1.24488 0C 1.50698 0 1.77727 0.0491643 2.00718 0.268745C 2.24133 0.49285 2.28628 0.743799 2.28628 0.994447C 2.28628 1.23152 2.2553 1.50962 2.02024 1.73794C 1.78608 1.96597 1.50698 1.99704 1.27191 1.99704L 0.780215 1.99704Z"/>
<path id="path37_fill" fill-rule="evenodd" d="M 1.05084 0.989608C 0.888664 1.14645 0.811523 1.36573 0.811523 1.57656C 0.811523 1.84018 0.938168 2.02417 1.05084 2.13185C 1.1948 2.26999 1.39798 2.36892 1.65946 2.36892C 1.9249 2.36892 2.12352 2.27482 2.26383 2.13607C 2.40354 1.99702 2.5068 1.79102 2.5068 1.56269C 2.5068 1.33014 2.40354 1.12383 2.26383 0.989608C 2.09649 0.833066 1.86629 0.752533 1.65946 0.752533C 1.44292 0.752533 1.21302 0.828542 1.05084 0.989608L 1.05084 0.989608ZM 2.84479 2.6778C 2.53866 2.96946 2.10527 3.12148 1.65944 3.12148C 1.21299 3.12148 0.780215 2.96946 0.473474 2.6778C 0.15337 2.37346 0 1.95722 0 1.5627C 0 1.16426 0.15337 0.743497 0.473474 0.443384C 0.780215 0.152621 1.21299 0 1.65944 0C 2.10527 0 2.53866 0.152621 2.84479 0.443384C 3.16581 0.743497 3.31827 1.16426 3.31827 1.5627C 3.31827 1.95722 3.16581 2.37346 2.84479 2.6778L 2.84479 2.6778Z"/>
<path id="path38_fill" fill-rule="evenodd" d="M 2.296 2.95589C 1.9841 3.06779 1.81372 3.10399 1.61904 3.10399C 1.09607 3.10399 0.703985 2.89798 0.455859 2.65578C 0.163089 2.36471 0 1.95722 0 1.56753C 0 1.14224 0.185563 0.739275 0.455859 0.465704C 0.721296 0.197261 1.1237 0 1.59201 0C 1.73658 0 1.97499 0.02232 2.296 0.152621L 2.296 1.0795C 2.04362 0.770643 1.74508 0.752244 1.61449 0.752244C 1.38914 0.752244 1.21816 0.819808 1.07359 0.950108C 0.888637 1.11992 0.812407 1.35277 0.812407 1.56361C 0.812407 1.76931 0.897444 1.99764 1.05537 2.14543C 1.18627 2.26669 1.394 2.35144 1.61449 2.35144C 1.73172 2.35144 2.02024 2.33757 2.296 2.03806L 2.296 2.95589Z"/>
<path id="path39_fill" fill-rule="evenodd" d="M 2.29539 2.95589C 1.98349 3.06779 1.81311 3.10399 1.61904 3.10399C 1.09546 3.10399 0.703681 2.89798 0.455252 2.65578C 0.162481 2.36471 0 1.95722 0 1.56753C 0 1.14224 0.184956 0.739275 0.455252 0.465704C 0.7216 0.197261 1.1231 0 1.59141 0C 1.73597 0 1.97529 0.02232 2.29539 0.152621L 2.29539 1.0795C 2.04301 0.770643 1.74508 0.752244 1.61388 0.752244C 1.38944 0.752244 1.21755 0.819808 1.07299 0.950108C 0.88803 1.11992 0.8118 1.35277 0.8118 1.56361C 0.8118 1.76931 0.897444 1.99764 1.05476 2.14543C 1.18566 2.26669 1.3937 2.35144 1.61388 2.35144C 1.73202 2.35144 2.01993 2.33757 2.29539 2.03806L 2.29539 2.95589Z"/>
<path id="path40_fill" fill-rule="evenodd" d="M 0.78477 0L 0.78477 1.88061L 1.91273 0L 2.71056 0L 2.71056 2.98696L 1.92579 2.98696L 1.92579 1.10665L 0.798437 2.98696L 0 2.98696L 0 0L 0.78477 0Z"/>
<path id="path41_fill" fill-rule="evenodd" d="M 0.783859 0L 0.783859 1.88061L 1.91181 0L 2.70964 0L 2.70964 2.98696L 1.92487 2.98696L 1.92487 1.10665L 0.79783 2.98696L 0 2.98696L 0 0L 0.783859 0Z"/>
<path id="path42_fill" fill-rule="evenodd" d="M 71.5206 0L 0 0L 0 29.5703L 71.5206 29.5703L 71.5206 0Z"/>
<path id="path43_fill" fill-rule="evenodd" d="M 61.7955 27.9383L 61.8535 9.70436L 70.2679 2.03714L 70.2649 23.718L 61.7955 27.9383ZM 1.25247 28.3268L 60.5382 28.3268L 60.5382 10.1104L 1.25247 10.1104L 1.25247 28.3268ZM 6.37626 1.24661L 69.2845 1.2442L 60.9986 8.79077L 1.73779 8.86497L 6.37626 1.24661ZM 71.5207 0L 5.67015 0.00241297L 0.062563 9.12828L 0 29.5704L 61.3135 29.5704L 71.5174 24.4856L 71.5207 0Z"/>
<path id="path44_fill" fill-rule="evenodd" d="M 4.61476 1.70657L 3.76622 1.70657C 3.15486 1.70657 2.64585 1.76841 2.40471 2.0462C 2.30297 2.16082 2.22614 2.34993 2.22614 2.59032C 2.22614 2.85545 2.31482 3.0699 2.44268 3.19598C 2.70902 3.46201 3.25691 3.47468 3.80388 3.47468L 4.61476 3.47468L 4.61476 1.70657ZM 4.61478 5.10495L 3.73404 5.10495C 3.50475 5.10495 3.12238 5.13059 2.89339 5.37098C 2.75399 5.51003 2.6893 5.73624 2.6893 5.92657C 2.6893 6.14042 2.76705 6.35698 2.89339 6.49573C 3.0334 6.63387 3.30096 6.74698 3.73404 6.74698L 4.61478 6.74698L 4.61478 5.10495ZM 6.81663 0L 6.81663 8.42851L 3.0589 8.42851C 2.44785 8.42851 1.72352 8.33954 1.20115 7.77038C 0.909593 7.45488 0.680296 6.9376 0.680296 6.19048C 0.680296 5.82582 0.74377 5.51002 0.922348 5.15532C 1.10001 4.82685 1.29074 4.63653 1.60933 4.49748C 1.16319 4.44771 0.839741 4.24623 0.572178 3.99347C 0.2296 3.665 0 3.12118 0 2.45128C 0 1.65439 0.305526 1.11238 0.6232 0.794773C 1.08119 0.328164 1.88205 0 2.92588 0L 6.81663 0Z"/>
<path id="path45_fill" fill-rule="evenodd" d="M 0 29.5704L 122.735 29.5704L 122.735 0L 0 0L 0 29.5704Z"/>
<path id="path46_fill" fill-rule="evenodd" d="M 0 8.42851L 2.2137 8.42851L 2.2137 0L 0 0L 0 8.42851ZM 6.86309 1.6936C 6.07772 1.6936 5.55899 2.24165 5.55899 2.74144C 5.55899 3.32146 5.92222 3.83572 6.86309 3.83572L 7.83161 3.83572L 7.83161 1.6936L 6.86309 1.6936ZM 10.0459 8.42851L 7.83162 8.42851L 7.83162 5.52903L 6.6906 5.52903C 4.50758 5.52812 3.3201 4.56836 3.3201 2.74144C 3.3201 1.02039 4.65427 0 6.93205 0L 10.0459 0L 10.0459 8.42851Z"/>
<path id="path47_fill" fill-rule="evenodd" d="M 3.321 3.93103L 0.5986 0L 3.321 0L 4.58046 2.18615L 5.89124 0L 8.6015 0L 5.84022 3.93103L 9.04642 8.42851L 6.37474 8.42851L 4.5677 5.68587L 2.65953 8.42851L 0 8.42851L 3.321 3.93103Z"/>
<path id="path48_fill" fill-rule="evenodd" d="M 6.39933 6.01583C 6.85762 5.57275 7.07386 4.95352 7.07386 4.35933C 7.07386 3.61432 6.71731 3.09614 6.39933 2.7927C 5.99206 2.4018 5.41958 2.1228 4.68219 2.1228C 3.93113 2.1228 3.3711 2.38853 2.97659 2.78004C 2.58269 3.17154 2.28992 3.75337 2.28992 4.39703C 2.28992 5.05487 2.58269 5.63549 2.97659 6.01583C 3.44764 6.45741 4.09635 6.68573 4.68219 6.68573C 5.29264 6.68573 5.94165 6.47008 6.39933 6.01583L 6.39933 6.01583ZM 1.33539 1.25113C 2.20033 0.431319 3.42213 0 4.6822 0C 5.94166 0 7.16346 0.431319 8.0281 1.25113C 8.93162 2.10954 9.3641 3.28587 9.3641 4.39704C 9.3641 5.52088 8.93162 6.71018 8.0281 7.55683C 7.16346 8.37814 5.94166 8.80765 4.6822 8.80765C 3.42213 8.80765 2.20033 8.37814 1.33539 7.55683C 0.432778 6.71018 0 5.52088 0 4.39704C 0 3.28587 0.432778 2.10954 1.33539 1.25113L 1.33539 1.25113Z"/>
<path id="path49_fill" fill-rule="evenodd" d="M 5.29326 6.26951C 5.29326 5.86473 5.31908 4.78372 5.49705 4.15333C 5.64951 3.62187 5.8785 3.22946 6.23444 2.8645L 3.23172 2.8645L 3.23172 7.50193L 5.29326 7.50193L 5.29326 6.26951ZM 1.01801 9.19584L 1.01801 2.8645L 0 2.8645L 0 0L 1.9847 0L 1.9847 1.1709L 7.1507 1.1709L 7.1507 0L 9.13541 0L 9.13541 2.8645C 8.80498 2.91457 8.4867 3.04065 8.16842 3.36881C 7.53246 4.02635 7.43072 5.28381 7.43072 6.48547L 7.43072 9.19584L 1.01801 9.19584Z"/>
</defs>
</svg>
