<?xml version="1.0" encoding="UTF-8"?>
<svg width="48px" height="48px" viewBox="0 0 48 48" version="1.1" xmlns="http://www.w3.org/2000/svg" xmlns:xlink="http://www.w3.org/1999/xlink">
    <!-- Generator: Sketch 44.1 (41455) - http://www.bohemiancoding.com/sketch -->
    <title>Group 11 Copy</title>
    <desc>Created with Sketch.</desc>
    <defs>
        <circle id="path-1" cx="20" cy="20" r="20"></circle>
        <filter x="-17.5%" y="-12.5%" width="135.0%" height="135.0%" filterUnits="objectBoundingBox" id="filter-2">
            <feOffset dx="0" dy="2" in="SourceAlpha" result="shadowOffsetOuter1"></feOffset>
            <feGaussianBlur stdDeviation="2" in="shadowOffsetOuter1" result="shadowBlurOuter1"></feGaussianBlur>
            <feColorMatrix values="0 0 0 0 0   0 0 0 0 0   0 0 0 0 0  0 0 0 0.178442029 0" type="matrix" in="shadowBlurOuter1"></feColorMatrix>
        </filter>
        <polygon id="path-3" points="0 2.45614035e-05 0 9.33333333 15.99625 9.33333333 15.99625 2.45614035e-05"></polygon>
    </defs>
    <g id="Events" stroke="none" stroke-width="1" fill="none" fill-rule="evenodd">
        <g id="Group-11-Copy" transform="translate(4.000000, 2.000000)">
            <g id="Oval-Copy-2">
                <use fill="black" fill-opacity="1" filter="url(#filter-2)" xlink:href="#path-1"></use>
                <use fill="#F6F6F6" fill-rule="evenodd" xlink:href="#path-1"></use>
            </g>
            <g id="Page-1" transform="translate(12.000000, 16.000000)">
                <mask id="mask-4" fill="white">
                    <use xlink:href="#path-3"></use>
                </mask>
                <g id="Clip-2"></g>
                <path d="M15.629225,0.631989474 C15.740475,0.26774386 15.629225,2.45614035e-05 15.099975,2.45614035e-05 L13.349975,2.45614035e-05 C12.9051,2.45614035e-05 12.69985,0.231270175 12.5886,0.486217544 C12.5886,0.486217544 11.698725,2.61741053 10.437975,4.00169123 C10.0301,4.40241053 9.844725,4.52988421 9.622225,4.52988421 C9.510975,4.52988421 9.349975,4.40241053 9.349975,4.03816491 L9.349975,0.631989474 C9.349975,0.194796491 9.22085,2.45614035e-05 8.849975,2.45614035e-05 L6.099975,2.45614035e-05 C5.821975,2.45614035e-05 5.654725,0.202901754 5.654725,0.395217544 C5.654725,0.809568421 6.284975,0.905235088 6.349975,2.0709193 L6.349975,4.60283158 C6.349975,5.1579193 6.247975,5.25849825 6.025475,5.25849825 C5.432225,5.25849825 3.9891,3.11784912 3.133225,0.668463158 C2.965475,0.192340351 2.797225,2.45614035e-05 2.349975,2.45614035e-05 L0.599975,2.45614035e-05 C0.099975,2.45614035e-05 -2.5e-05,0.231270175 -2.5e-05,0.486217544 C-2.5e-05,0.941585965 0.59335,3.20025263 2.762475,6.18741053 C4.2086,8.2274807 6.245975,9.33335789 8.099975,9.33335789 C9.21235,9.33335789 9.349975,9.08774386 9.349975,8.66467368 L9.349975,7.12283158 C9.349975,6.63160351 9.45535,6.5334807 9.8076,6.5334807 C10.067225,6.5334807 10.5121,6.66107719 11.550475,7.6446386 C12.736975,8.81032281 12.9326,9.33335789 13.599975,9.33335789 L15.349975,9.33335789 C15.849975,9.33335789 16.099975,9.08774386 15.95585,8.60302456 C15.797975,8.11990175 15.231475,7.41904211 14.479725,6.58812982 C14.07185,6.11458596 13.459975,5.60456842 13.2746,5.34949825 C13.0151,5.02172632 13.089225,4.87595439 13.2746,4.58453333 C13.2746,4.58453333 15.406725,1.63372632 15.629225,0.631989474" id="Fill-1" fill="#000000" mask="url(#mask-4)"></path>
            </g>
        </g>
    </g>
</svg>